<svg width="200" height="200" viewBox="0 0 200 200" xmlns="http://www.w3.org/2000/svg">
    <!-- Jellyfish Body -->
    <ellipse cx="100" cy="60" rx="50" ry="40" fill="#FFB6C1" />
    <circle cx="100" cy="60" r="50" fill="#FF69B4" />

    <!-- White Dots -->
    <circle cx="70" cy="40" r="5" fill="#FFFFFF" />
    <circle cx="80" cy="70" r="5" fill="#FFFFFF" />
    <circle cx="110" cy="50" r="5" fill="#FFFFFF" />
    <circle cx="90" cy="80" r="5" fill="#FFFFFF" />
    <circle cx="130" cy="60" r="5" fill="#FFFFFF" />

    <!-- Frilly Edge -->
    <path d="M 50 80 Q 75 90 100 80 T 150 80" fill="#FF69B4" />
    <path d="M 50 80 Q 75 100 100 80 T 150 80" fill="#FF69B4" />

    <!-- Tentacles -->
    <path d="M 60 90 Q 50 140 40 170" stroke="#FF69B4" stroke-width="8" fill="none" />
    <path d="M 80 90 Q 70 140 60 170" stroke="#FF69B4" stroke-width="8" fill="none" />
    <path d="M 100 90 Q 90 140 80 170" stroke="#FF69B4" stroke-width="8" fill="none" />
    <path d="M 120 90 Q 110 140 100 170" stroke="#FF69B4" stroke-width="8" fill="none" />
    <path d="M 140 90 Q 130 140 120 170" stroke="#FF69B4" stroke-width="8" fill="none" />

    <!-- Small Tentacles -->
    <path d="M 70 90 Q 65 120 60 150" stroke="#FF69B4" stroke-width="4" fill="none" />
    <path d="M 90 90 Q 85 120 80 150" stroke="#FF69B4" stroke-width="4" fill="none" />
    <path d="M 110 90 Q 105 120 100 150" stroke="#FF69B4" stroke-width="4" fill="none" />
    <path d="M 130 90 Q 125 120 120 150" stroke="#FF69B4" stroke-width="4" fill="none" />
</svg>
  